<svg width="29" height="25" viewBox="0 0 29 25" fill="none" xmlns="http://www.w3.org/2000/svg">
<path d="M26.6113 5.74707C26.792 5.13672 26.6113 4.6875 25.7422 4.6875H22.8662C22.1338 4.6875 21.7969 5.07324 21.6162 5.50293C21.6162 5.50293 20.1514 9.07227 18.081 11.3867C17.4121 12.0557 17.1045 12.2705 16.7383 12.2705C16.5576 12.2705 16.2793 12.0557 16.2793 11.4453V5.74707C16.2793 5.01465 16.0742 4.6875 15.4687 4.6875H10.9473C10.4883 4.6875 10.2148 5.0293 10.2148 5.34668C10.2148 6.04004 11.25 6.20117 11.3574 8.1543V12.3926C11.3574 13.3203 11.1914 13.4912 10.8252 13.4912C9.84863 13.4912 7.47558 9.90723 6.06933 5.80566C5.78613 5.00977 5.50781 4.6875 4.77051 4.6875H1.89453C1.07422 4.6875 0.908203 5.07324 0.908203 5.50293C0.908203 6.26465 1.88477 10.0488 5.4541 15.0488C7.83203 18.4619 11.1816 20.3125 14.2285 20.3125C16.0596 20.3125 16.2842 19.9023 16.2842 19.1943C16.2842 15.9326 16.1182 15.625 17.0361 15.625C17.4609 15.625 18.1933 15.8398 19.9023 17.4854C21.8555 19.4385 22.1777 20.3125 23.2715 20.3125H26.1474C26.9678 20.3125 27.3828 19.9023 27.1435 19.0918C26.5967 17.3877 22.9004 13.8818 22.7344 13.6475C22.3096 13.1006 22.4316 12.8564 22.7344 12.3682C22.7392 12.3633 26.25 7.42187 26.6113 5.74707Z" fill="#EC9632"/>
</svg>
