<svg width="22" height="25" viewBox="0 0 22 25" fill="none" xmlns="http://www.w3.org/2000/svg">
<g clip-path="url(#clip0)">
<path d="M10.9424 6.88477C7.83692 6.88477 5.33203 9.38965 5.33203 12.4951C5.33203 15.6006 7.83692 18.1055 10.9424 18.1055C14.0479 18.1055 16.5527 15.6006 16.5527 12.4951C16.5527 9.38965 14.0479 6.88477 10.9424 6.88477ZM10.9424 16.1426C8.93555 16.1426 7.29492 14.5068 7.29492 12.4951C7.29492 10.4834 8.93067 8.84766 10.9424 8.84766C12.9541 8.84766 14.5898 10.4834 14.5898 12.4951C14.5898 14.5068 12.9492 16.1426 10.9424 16.1426ZM18.0908 6.65527C18.0908 7.38281 17.5049 7.96387 16.7822 7.96387C16.0547 7.96387 15.4736 7.37793 15.4736 6.65527C15.4736 5.93262 16.0596 5.34668 16.7822 5.34668C17.5049 5.34668 18.0908 5.93262 18.0908 6.65527ZM21.8066 7.9834C21.7236 6.23047 21.3232 4.67773 20.0391 3.39844C18.7598 2.11914 17.207 1.71875 15.4541 1.63086C13.6475 1.52832 8.23242 1.52832 6.42578 1.63086C4.67774 1.71387 3.125 2.11426 1.84082 3.39355C0.556641 4.67285 0.161133 6.22559 0.0732422 7.97852C-0.0292969 9.78516 -0.0292969 15.2002 0.0732422 17.0068C0.15625 18.7598 0.556641 20.3125 1.84082 21.5918C3.125 22.8711 4.67285 23.2715 6.42578 23.3594C8.23242 23.4619 13.6475 23.4619 15.4541 23.3594C17.207 23.2764 18.7598 22.876 20.0391 21.5918C21.3184 20.3125 21.7188 18.7598 21.8066 17.0068C21.9092 15.2002 21.9092 9.79004 21.8066 7.9834ZM19.4727 18.9453C19.0918 19.9023 18.3545 20.6396 17.3926 21.0254C15.9522 21.5967 12.5342 21.4648 10.9424 21.4648C9.35059 21.4648 5.92774 21.5918 4.49219 21.0254C3.53516 20.6445 2.79785 19.9072 2.41211 18.9453C1.84082 17.5049 1.97266 14.0869 1.97266 12.4951C1.97266 10.9033 1.8457 7.48047 2.41211 6.04492C2.79297 5.08789 3.53027 4.35059 4.49219 3.96484C5.93262 3.39355 9.35059 3.52539 10.9424 3.52539C12.5342 3.52539 15.957 3.39844 17.3926 3.96484C18.3496 4.3457 19.0869 5.08301 19.4727 6.04492C20.0439 7.48535 19.9121 10.9033 19.9121 12.4951C19.9121 14.0869 20.0439 17.5098 19.4727 18.9453Z" fill="#EC9632"/>
</g>
<defs>
<clipPath id="clip0">
<rect width="21.875" height="25" fill="white"/>
</clipPath>
</defs>
</svg>
