<svg width="25" height="25" viewBox="0 0 25 25" fill="none" xmlns="http://www.w3.org/2000/svg">
<path d="M18.6347 5.27626C19.5927 5.27626 20.3688 4.50534 20.3688 3.54555V1.73414C20.3688 0.773497 19.5936 0 18.6347 0C17.6757 0 16.9014 0.772638 16.9014 1.73414V3.54641C16.9022 4.50534 17.6766 5.27626 18.6347 5.27626Z" fill="white"/>
<path d="M24.795 2.99959H21.3044V3.88126C21.3044 5.3364 20.1222 6.52197 18.6645 6.52197C17.2051 6.52197 16.0255 5.3364 16.0255 3.88126V2.99959H8.98164V3.88126C8.98164 5.3364 7.79778 6.52197 6.34093 6.52197C4.88408 6.52197 3.70108 5.33725 3.70108 3.88126V2.99959L0.178711 2.95581V25H1.94033H23.0625L24.8216 24.9949L24.795 2.99959ZM23.0608 23.2444H1.94033V9.16181H23.0625V23.2444H23.0608Z" fill="white"/>
<path d="M6.31348 5.27626C7.27155 5.27626 8.04848 4.50534 8.04848 3.54555V1.73414C8.04848 0.772638 7.27155 0 6.31348 0C5.35541 0 4.58105 0.772638 4.58105 1.73414V3.54641C4.58105 4.50534 5.35455 5.27626 6.31348 5.27626Z" fill="white"/>
<path d="M11.7606 11.0513H8.98682V13.4997H11.7606V11.0513Z" fill="white"/>
<path d="M16.248 11.0513H13.4717V13.4997H16.248V11.0513Z" fill="white"/>
<path d="M20.4046 11.0513H17.6309V13.4997H20.4046V11.0513Z" fill="white"/>
<path d="M11.7606 15.1171H8.98682V17.5638H11.7606V15.1171Z" fill="white"/>
<path d="M16.248 15.1171H13.4717V17.5638H16.248V15.1171Z" fill="white"/>
<path d="M20.4046 15.1171H17.6309V17.5638H20.4046V15.1171Z" fill="white"/>
<path d="M11.7606 19.2635H8.98682V21.7102H11.7606V19.2635Z" fill="white"/>
<path d="M7.35311 15.1171H4.58105V17.5638H7.35311V15.1171Z" fill="white"/>
<path d="M7.35311 19.2635H4.58105V21.7102H7.35311V19.2635Z" fill="white"/>
<path d="M16.248 19.2635H13.4717V21.7102H16.248V19.2635Z" fill="white"/>
<path d="M20.4046 19.2635H17.6309V21.7102H20.4046V19.2635Z" fill="white"/>
</svg>
