<svg width="25" height="25" viewBox="0 0 25 25" fill="none" xmlns="http://www.w3.org/2000/svg">
<path d="M11.7676 13.2324H0V22.8027C0 24.0144 0.985645 25 2.19727 25H11.7676V13.2324ZM7.97959 21.1632C7.69351 21.4493 7.23003 21.4493 6.9439 21.1632L5.9082 20.1275L4.87251 21.1632C4.58643 21.4493 4.12295 21.4493 3.83682 21.1632C3.55073 20.8771 3.55073 20.4136 3.83682 20.1275L4.87251 19.0918L3.83682 18.0561C3.55073 17.77 3.55073 17.3065 3.83682 17.0204C4.1229 16.7343 4.58643 16.7343 4.87251 17.0204L5.9082 18.0561L6.9439 17.0204C7.22998 16.7343 7.69351 16.7343 7.97959 17.0204C8.26567 17.3065 8.26567 17.77 7.97959 18.0561L6.9439 19.0918L7.97959 20.1275C8.26567 20.4136 8.26567 20.8771 7.97959 21.1632Z" fill="white"/>
<path d="M13.2324 13.2324V25H22.8027C24.0144 25 25 24.0144 25 22.8027V13.2324H13.2324ZM21.2891 21.2891H16.8945C16.4897 21.2891 16.1621 20.9615 16.1621 20.5566C16.1621 20.1518 16.4897 19.8242 16.8945 19.8242H21.2891C21.6939 19.8242 22.0215 20.1518 22.0215 20.5566C22.0215 20.9615 21.6939 21.2891 21.2891 21.2891ZM21.2891 18.3594H16.8945C16.4897 18.3594 16.1621 18.0318 16.1621 17.627C16.1621 17.2221 16.4897 16.8945 16.8945 16.8945H21.2891C21.6939 16.8945 22.0215 17.2221 22.0215 17.627C22.0215 18.0318 21.6939 18.3594 21.2891 18.3594Z" fill="white"/>
<path d="M11.7676 11.7676V0H2.19727C0.985645 0 0 0.985645 0 2.19727V11.7676H11.7676ZM3.71094 5.17578H5.17578V3.71094C5.17578 3.3061 5.50337 2.97852 5.9082 2.97852C6.31304 2.97852 6.64062 3.3061 6.64062 3.71094V5.17578H8.10547C8.5103 5.17578 8.83789 5.50337 8.83789 5.9082C8.83789 6.31304 8.5103 6.64062 8.10547 6.64062H6.64062V8.10547C6.64062 8.5103 6.31304 8.83789 5.9082 8.83789C5.50337 8.83789 5.17578 8.5103 5.17578 8.10547V6.64062H3.71094C3.3061 6.64062 2.97852 6.31304 2.97852 5.9082C2.97852 5.50337 3.3061 5.17578 3.71094 5.17578Z" fill="white"/>
<path d="M13.2324 11.7676H25V2.19727C25 0.985645 24.0144 0 22.8027 0H13.2324V11.7676ZM16.8945 5.17578H21.2891C21.6939 5.17578 22.0215 5.50337 22.0215 5.9082C22.0215 6.31304 21.6939 6.64062 21.2891 6.64062H16.8945C16.4897 6.64062 16.1621 6.31304 16.1621 5.9082C16.1621 5.50337 16.4897 5.17578 16.8945 5.17578Z" fill="white"/>
</svg>
