<svg width="176" height="50" viewBox="0 0 176 50" fill="none" xmlns="http://www.w3.org/2000/svg">
<g clip-path="url(#clip0)">
<path d="M52.5414 22.2737C52.375 16.222 49.706 11.7801 45.4241 7.99099C44.784 7.21653 45.0336 7.25813 43.4143 5.81162C40.1821 2.98581 36.4346 1.24808 32.1591 1.01126C26.8019 0.707241 21.5311 1.5073 16.4076 3.07542C11.0504 4.71714 6.40044 7.55575 2.90899 11.9977C0.281603 15.3611 -0.409647 19.2942 0.214398 23.5313C1.14567 29.8934 3.88506 35.2378 9.12064 39.0141C16.558 44.3777 25.1634 44.3233 33.7784 43.7409C36.857 43.5328 39.9197 42.96 42.5726 41.1807C43.2831 40.7006 43.3823 41.4847 43.4367 41.7087C43.9647 43.8305 44.416 45.9682 44.8768 48.1092C44.9568 48.4708 44.736 48.9893 45.2928 49.0885C45.4965 49.101 45.6992 49.0518 45.8745 48.9473C46.0498 48.8428 46.1894 48.6879 46.2753 48.5028C46.9666 47.3443 47.7954 46.2818 48.3491 45.0274C51.5525 37.7628 52.759 30.2134 52.5414 22.2737ZM46.8098 44.1153C46.6753 44.4353 46.6465 44.9313 46.0161 44.9025C45.4657 43.2352 45.1616 41.4847 44.5696 39.8206C44.0384 38.3325 43.0687 37.958 42.0094 38.9917C40.5597 40.3902 38.7836 40.931 36.9242 41.2671C32.1362 42.1636 27.2406 42.3351 22.4016 41.7759C13.3929 40.6974 6.34284 36.7771 2.9634 27.9477C1.04326 22.9201 0.640029 17.7997 4.10268 13.0826C6.62126 9.66471 10.0231 7.40854 13.8314 5.70602C18.4461 3.64186 23.3617 2.8802 28.3444 2.51218C33.1768 2.14415 37.6795 3.17783 41.5166 6.35246C41.7982 6.58288 45.6033 10.3912 46.0193 10.8328C48.3715 13.441 50.2052 16.2252 50.634 19.8415C51.6325 28.3029 50.1316 36.3483 46.8098 44.1153Z" fill="white"/>
<path d="M16.2316 23.0417C14.3114 26.162 12.7657 29.327 12.2633 32.9241C12.1641 33.6409 12.1641 34.393 11.1592 34.3642C10.2311 34.3386 10.0615 33.6569 10.0007 32.9113C9.81189 30.7223 10.7464 28.8182 11.5208 26.882C12.2036 25.1008 13.1044 23.411 14.2026 21.8512C14.6794 21.2112 14.5834 20.6543 14.145 20.0335C13.5757 19.2407 13.0542 18.4146 12.5833 17.5597C12.3338 17.0713 12.1683 16.5445 12.0937 16.0012C12.004 15.3931 12.1097 14.6507 12.7657 14.5035C13.2969 14.3819 13.5978 15.0091 13.7514 15.5116C14.0714 16.5516 14.6922 17.4093 15.2587 18.3086C15.7195 19.0382 16.1227 19.0542 16.5964 18.3566C17.3614 17.2911 18.2546 16.3238 19.2558 15.4763C19.7198 15.0603 20.3599 14.5707 20.9519 15.1819C21.4575 15.7068 21.0319 16.3148 20.6863 16.782C19.9015 17.9345 19.0465 19.0374 18.1261 20.0847C17.3036 20.9552 17.6589 21.5664 18.2637 22.2385C19.3582 23.4513 20.5359 24.6002 21.5471 25.8803C22.0464 26.5204 23.2593 27.2884 22.1872 28.1941C21.3039 28.9398 20.6255 27.8997 19.9982 27.33C18.6157 26.0723 17.5212 24.5554 16.2316 23.0417Z" fill="#EC4F32"/>
<path d="M43.8847 17.5277C43.6959 18.3341 43.2447 19.1118 42.2622 18.9774C41.8485 18.9304 41.4673 18.7302 41.1937 18.4163C40.9201 18.1024 40.7738 17.6975 40.7837 17.2813C40.8285 16.0844 44.2047 6.18605 44.384 5.81163C45.1616 4.1219 45.7057 2.32657 46.7521 0.761653C47.0914 0.256016 47.4754 -0.268823 48.0834 0.153608C48.3186 0.316232 48.4862 0.55928 48.5546 0.836934C48.623 1.11459 48.5874 1.40767 48.4547 1.66092C47.5938 3.67387 45.232 11.7129 43.8847 17.5277Z" fill="#EC4F32"/>
<path d="M41.8462 25.013C41.9134 25.1694 41.946 25.3385 41.9415 25.5087C41.9371 25.6788 41.8959 25.846 41.8206 25.9987C41.5934 26.4659 41.2894 26.8467 40.691 26.8147C40.2077 26.7891 40.0061 26.2739 40.1149 25.8035C40.2525 25.2018 40.4862 24.6034 41.2606 24.6098C41.3888 24.604 41.5154 24.6402 41.6211 24.713C41.7269 24.7858 41.8059 24.8912 41.8462 25.013Z" fill="#EC4F32"/>
<path d="M28.7732 11.2009C26.8531 11.6809 25.4386 13.0314 24.3665 14.6731C22.0591 18.1934 21.8799 21.6048 24.7377 24.5938C27.0259 26.9844 30.4149 27.5508 32.6583 25.7395C35.2377 23.6562 36.6938 20.9392 36.8186 16.3564C37.0618 12.4041 32.2455 10.3368 28.7732 11.2009ZM31.4102 24.1458C30.9064 24.5399 30.2909 24.7646 29.6517 24.7876C29.0124 24.8106 28.3823 24.6307 27.8515 24.2738C24.4145 22.1745 23.8929 19.8895 25.6978 16.4236C26.0754 15.6908 26.5875 14.8779 27.2595 14.4843C28.914 13.5242 30.7606 12.9834 32.6551 13.745C34.3032 14.4107 34.6648 15.9212 34.8056 17.4829C34.6264 20.2319 33.5319 22.4753 31.4102 24.1554V24.1458Z" fill="#EC4F32"/>
<path d="M68.3987 37.3084C67.3538 37.316 66.3548 37.7384 65.6214 38.4826C64.888 39.2268 64.4803 40.2319 64.4879 41.2767C64.4955 42.3215 64.9179 43.3205 65.6621 44.0539C66.4064 44.7873 67.4114 45.195 68.4563 45.1874C69.8932 45.1874 71.0965 44.5633 71.7526 43.4721L71.8454 43.3217L70.9013 42.7648L70.8117 42.9216C70.3956 43.6865 69.5316 44.1441 68.4723 44.1441C67.7904 44.1748 67.1212 43.9522 66.5936 43.5191C66.066 43.0861 65.7172 42.4731 65.6144 41.7983H72.1238V41.6223C72.1238 41.5679 72.1238 41.5135 72.1238 41.4591C72.1238 41.4047 72.1238 41.3375 72.1238 41.2767C72.1366 39.363 70.8277 37.3084 68.3987 37.3084ZM68.3987 38.3517C69.778 38.3517 70.8085 39.3118 71.0133 40.7391H65.6048C65.6848 40.0627 66.0168 39.4413 66.5346 38.9988C67.0525 38.5563 67.718 38.3252 68.3987 38.3517Z" fill="white"/>
<path d="M75.9287 43.6513L73.3333 37.4652H72.1716L75.3782 45.0306H76.4919L79.6825 37.4652H78.5368L75.9287 43.6513Z" fill="white"/>
<path d="M83.686 37.3084C82.6411 37.316 81.6421 37.7384 80.9087 38.4826C80.1753 39.2268 79.7676 40.2319 79.7753 41.2767C79.7829 42.3215 80.2053 43.3205 80.9495 44.0539C81.6937 44.7873 82.6987 45.195 83.7436 45.1874C85.1805 45.1874 86.3838 44.5633 87.0398 43.4721L87.1326 43.3217L86.1886 42.7648L86.099 42.9216C85.6829 43.6865 84.8189 44.1441 83.7596 44.1441C83.0777 44.1748 82.4085 43.9522 81.8809 43.5191C81.3533 43.0861 81.0045 42.4731 80.9017 41.7983H87.4111V41.6223C87.4111 41.5679 87.4111 41.5135 87.4111 41.4591C87.4111 41.4047 87.4111 41.3375 87.4111 41.2767C87.4271 39.363 86.115 37.3084 83.686 37.3084ZM83.686 38.3517C85.0653 38.3517 86.0958 39.3118 86.3038 40.7391H80.8985C80.9785 40.0638 81.3096 39.4433 81.826 39.001C82.3425 38.5587 83.0064 38.3269 83.686 38.3517Z" fill="white"/>
<path d="M92.2402 37.3084C91.7806 37.2886 91.3228 37.378 90.9044 37.5694C90.4861 37.7607 90.1191 38.0486 89.8336 38.4093V37.4492H88.7615V45.0146H89.8336V41.0463C89.8336 39.3598 90.7104 38.3517 92.1826 38.3517C93.3987 38.3517 94.1251 39.1038 94.1251 40.3678V45.0306H95.2132V40.3678C95.2132 38.5085 94.0451 37.3084 92.2402 37.3084Z" fill="white"/>
<path d="M98.7912 35.3882L97.7031 35.7083V37.4652H96.103V38.5245H97.7031V43.0368C97.7031 43.7856 97.8983 44.3169 98.3016 44.6625C98.7342 44.9898 99.2709 45.149 99.8121 45.1105C100.14 45.1068 100.467 45.079 100.791 45.0273L100.939 45.0049V44.0129L100.75 44.0289C99.9497 44.0993 99.316 44.1345 99.0312 43.8721C98.9365 43.7565 98.8663 43.6228 98.825 43.4792C98.7838 43.3356 98.7722 43.185 98.7912 43.0368V38.5245H100.939V37.4652H98.7912V35.3882Z" fill="white"/>
<path d="M104.526 40.7455C103.406 40.4606 102.728 40.2366 102.728 39.5326C102.728 38.7165 103.508 38.3517 104.283 38.3517C105.057 38.3517 105.717 38.7197 105.966 39.3374L106.04 39.523L106.958 38.9981L106.894 38.8541C106.465 37.8941 105.489 37.3084 104.283 37.3084C102.76 37.3084 101.655 38.2429 101.655 39.5486C101.655 41.0719 103.006 41.4239 104.216 41.7311C105.352 42.0255 106.04 42.256 106.04 42.9792C106.04 43.8497 105.134 44.1601 104.356 44.1601C103.374 44.1601 102.644 43.7313 102.404 43.0112L102.334 42.8064L101.399 43.3504L101.451 43.4881C101.854 44.5633 102.939 45.2034 104.356 45.2034C105.979 45.2034 107.115 44.2881 107.115 42.9792C107.099 41.4047 105.733 41.0559 104.526 40.7455Z" fill="white"/>
<path d="M78.1977 13.7002H75.676L71.4549 19.1214L67.2626 13.7002H64.712L70.194 20.7823L64.376 28.2581H66.9298L71.4549 22.4208L75.98 28.2581H78.5306L72.7446 20.7567L78.1977 13.7002Z" fill="white"/>
<path d="M86.4542 13.393C84.9554 13.3987 83.4918 13.8483 82.2483 14.6852C81.0048 15.522 80.0372 16.7086 79.4676 18.095C78.8979 19.4813 78.7518 21.0054 79.0477 22.4748C79.3436 23.9441 80.0682 25.2929 81.1301 26.3507C82.1919 27.4086 83.5434 28.1281 85.0139 28.4184C86.4844 28.7087 88.0079 28.5569 89.3921 27.982C90.7764 27.4071 91.9592 26.4349 92.7914 25.1883C93.6235 23.9416 94.0676 22.4764 94.0676 20.9775C94.0749 19.9771 93.8827 18.9851 93.5024 18.0598C93.122 17.1344 92.561 16.2941 91.8522 15.588C91.1434 14.8818 90.3009 14.324 89.3741 13.9472C88.4473 13.5703 87.4547 13.3819 86.4542 13.393ZM86.4542 26.5523C85.3494 26.5631 84.2662 26.2454 83.3423 25.6394C82.4184 25.0334 81.6954 24.1666 81.2651 23.1489C80.8348 22.1312 80.7166 21.0086 80.9256 19.9237C81.1345 18.8387 81.6611 17.8403 82.4385 17.0552C83.216 16.2701 84.2092 15.7337 85.2921 15.5142C86.3749 15.2946 87.4986 15.4018 88.5205 15.8221C89.5423 16.2424 90.4162 16.9568 91.0312 17.8748C91.6462 18.7927 91.9746 19.8726 91.9747 20.9775C91.9853 21.7084 91.8502 22.4341 91.5774 23.1123C91.3045 23.7904 90.8993 24.4074 90.3854 24.9273C89.8715 25.4471 89.2592 25.8594 88.5843 26.1401C87.9093 26.4207 87.1852 26.5642 86.4542 26.5619V26.5523Z" fill="white"/>
<path d="M107.826 13.7002H105.307L101.086 19.1214L96.8935 13.7002H94.3429L99.8249 20.7823L94.0068 28.2581H96.5574L101.086 22.4208L105.611 28.2581H108.158L102.372 20.7567L107.826 13.7002Z" fill="white"/>
<path d="M112.683 22.0816C112.683 23.973 112.363 25.1858 111.701 25.7907C111.259 26.1907 110.632 26.3475 109.781 26.2707L109.409 26.2387V28.2261L109.729 28.2517C109.918 28.2517 110.104 28.2709 110.28 28.2709C111.493 28.2709 112.44 27.9508 113.16 27.2692C114.232 26.2739 114.76 24.5778 114.76 22.0816V15.7355H121.081V28.2581H123.145V13.7002H112.683V22.0816Z" fill="white"/>
<path d="M133.427 13.393C131.929 13.3987 130.465 13.8484 129.221 14.6852C127.978 15.5221 127.01 16.7086 126.441 18.095C125.871 19.4814 125.725 21.0054 126.021 22.4748C126.317 23.9442 127.041 25.2929 128.103 26.3507C129.165 27.4086 130.517 28.1281 131.987 28.4184C133.458 28.7087 134.981 28.5569 136.365 27.982C137.75 27.4071 138.932 26.4349 139.765 25.1883C140.597 23.9417 141.041 22.4764 141.041 20.9776C141.048 19.9772 140.855 18.9855 140.475 18.0603C140.094 17.1351 139.533 16.295 138.824 15.589C138.116 14.8829 137.273 14.3251 136.347 13.9481C135.42 13.5711 134.428 13.3824 133.427 13.393ZM133.427 26.5524C132.323 26.5631 131.239 26.2454 130.315 25.6394C129.392 25.0334 128.669 24.1666 128.238 23.1489C127.808 22.1312 127.69 21.0087 127.899 19.9237C128.108 18.8387 128.634 17.8403 129.412 17.0552C130.189 16.2701 131.182 15.7337 132.265 15.5142C133.348 15.2946 134.472 15.4018 135.494 15.8221C136.515 16.2424 137.389 16.9569 138.004 17.8748C138.619 18.7927 138.948 19.8727 138.948 20.9776C138.959 21.7086 138.824 22.4345 138.551 23.1128C138.279 23.7911 137.874 24.4083 137.36 24.9282C136.846 25.4482 136.233 25.8605 135.558 26.141C134.883 26.4215 134.158 26.5646 133.427 26.562V26.5524Z" fill="white"/>
<path d="M151.035 21.3744L146.167 13.7002H144.004V28.2581H146.071V17.2589L150.766 24.677H151.332L155.998 17.3133V28.2581H158.091V13.7002H155.902L151.035 21.3744Z" fill="white"/>
<path d="M173.907 13.7002V16.0556C173.238 15.2066 172.381 14.5244 171.404 14.0624C170.426 13.6004 169.355 13.3713 168.275 13.393C167.279 13.3861 166.293 13.578 165.373 13.9574C164.452 14.3368 163.617 14.8962 162.916 15.6026C162.215 16.3091 161.662 17.1484 161.29 18.0714C160.917 18.9944 160.733 19.9824 160.748 20.9776C160.733 21.9727 160.917 22.9608 161.29 23.8838C161.662 24.8068 162.215 25.6461 162.916 26.3525C163.617 27.059 164.452 27.6183 165.373 27.9977C166.293 28.3772 167.279 28.5691 168.275 28.5621C169.355 28.5839 170.426 28.3548 171.404 27.8928C172.381 27.4308 173.238 26.7485 173.907 25.8995V28.2581H176.013V13.7002H173.907ZM168.387 26.562C167.282 26.5728 166.199 26.255 165.275 25.649C164.351 25.043 163.628 24.1762 163.198 23.1585C162.767 22.1409 162.649 21.0183 162.858 19.9333C163.067 18.8483 163.593 17.8499 164.371 17.0648C165.148 16.2797 166.142 15.7434 167.224 15.5238C168.307 15.3042 169.431 15.4114 170.453 15.8317C171.475 16.252 172.349 16.9665 172.964 17.8844C173.579 18.8023 173.907 19.8823 173.907 20.9872C173.917 21.7174 173.781 22.4422 173.508 23.1195C173.234 23.7967 172.829 24.4127 172.315 24.9316C171.801 25.4505 171.189 25.862 170.515 26.1419C169.84 26.4218 169.117 26.5646 168.387 26.562Z" fill="white"/>
</g>
<defs>
<clipPath id="clip0">
<rect width="176" height="49.0884" fill="white"/>
</clipPath>
</defs>
</svg>
