<svg width="188" height="35" viewBox="0 0 188 35" fill="none" xmlns="http://www.w3.org/2000/svg">
<path d="M101.931 17.6668V22.7459C101.931 22.9346 101.777 23.0977 101.578 23.0977H97.5681C94.3294 23.0455 93.0293 21.5517 92.9796 18.304C93.0293 15.1571 94.1892 13.5869 97.5872 13.5397V13.5468H106.039V10.0698H97.5872C91.5661 10.1004 89.0858 12.661 88.966 18.1034L88.9609 18.5304L88.966 18.5375C89.0947 23.8194 91.5699 26.4131 97.4177 26.4998V26.5039H103.606C105.034 26.5039 106.059 25.3109 106.059 24.0529V17.666H101.931V17.6668ZM135.063 26.4955V19.7288H145.348V16.3715H135.063V11.3013C135.063 11.1076 135.22 10.947 135.418 10.947H145.586V7.47122H133.39C131.962 7.47122 130.935 8.66167 130.935 9.92222V26.4955H135.063ZM76.0825 23.0375C75.8811 23.0375 75.7282 22.8757 75.7282 22.6845V19.7479H86.0089V16.3932H75.7282V13.8912C75.7282 13.7 75.8811 13.5369 76.0825 13.5369H86.2523V10.0599H74.0547C72.6246 10.0599 71.5973 11.2554 71.5973 12.5134V24.061C71.5973 25.3229 72.6246 26.5159 74.0547 26.5159H86.2523V23.0375H76.0825ZM64.8655 7.08069C62.9345 7.08069 61.702 8.11054 60.7882 10.1817L55.412 22.5654L50.0321 10.1817C49.1169 8.11054 47.8844 7.08069 45.9522 7.08069C44.1448 7.08069 42.2776 8.37438 42.2776 11.1848V26.5166H46.3983V11.6041L51.8101 23.8834C52.5379 25.5989 53.7067 26.6759 55.4082 26.6785H55.4123C57.1126 26.6754 58.2839 25.5989 59.0104 23.8834L64.421 11.6041V26.5166H68.5416V11.1848C68.5416 8.37438 66.6719 7.08069 64.8658 7.08069H64.8655ZM115.449 19.7481L117.987 13.7742C118.067 13.5869 118.212 13.5372 118.322 13.5372H118.324C118.433 13.5372 118.581 13.5869 118.659 13.7742L121.201 19.7481H115.448H115.449ZM121.713 11.8968C121.021 10.3979 119.646 9.66756 118.324 9.66756H118.322C116.999 9.66756 115.624 10.3979 114.937 11.8968L108.193 26.5161H112.58L114.05 23.0416H122.598L124.069 26.5161H128.456L121.714 11.8968H121.713ZM182.525 10.0602V21.0585L175.44 11.3909C174.842 10.6389 174.177 10.0602 172.809 10.0602C171.553 10.0602 170.002 11.0531 170.002 12.9382V26.5264H174.129V15.5307L181.183 25.2302C181.797 26.0663 182.432 26.5264 183.844 26.5264C185.101 26.5264 186.651 25.6253 186.651 23.6472V10.0602H182.525ZM157.796 23.2696C153.583 23.2696 152.371 21.7223 152.371 18.2771V18.2593C152.371 14.9161 153.527 13.2732 157.796 13.2732C162.071 13.2732 163.225 14.9161 163.225 18.2593V18.2771C163.225 21.7223 162.01 23.2696 157.796 23.2696ZM167.242 18.2593C167.241 12.4982 164.942 9.81145 157.796 9.81145C150.656 9.81145 148.356 12.4982 148.352 18.2593V18.2708C148.352 23.9427 150.716 26.6779 157.796 26.6779C164.879 26.6779 167.242 23.9427 167.242 18.2708V18.2593Z" fill="#00985F"/>
<path d="M14.3367 14.6029C13.1972 14.6029 12.2718 13.6788 12.2718 12.5407C12.2718 11.3999 13.1972 10.4758 14.3367 10.4758C15.4761 10.4758 16.3989 11.3999 16.3989 12.5407C16.3989 13.6788 15.4761 14.6029 14.3367 14.6029ZM17.5014 0.990479C8.38185 0.990479 0.993164 8.38045 0.993164 17.4987C0.993164 25.4113 6.56177 32.0238 13.9912 33.6335V18.8192L13.9923 18.8182C14.0089 18.1031 14.5786 17.527 15.2872 17.5003V17.4992H15.9742H17.3724C17.4693 17.4992 17.5483 17.4228 17.5534 17.3272L17.5544 0.993436L17.5014 0.990479ZM28.8775 26.5044C27.7393 26.5044 26.8139 25.5803 26.8139 24.4396C26.8139 23.3027 27.7393 22.3786 28.8775 22.3786C30.0157 22.3786 30.941 23.3027 30.941 24.4396C30.941 25.5803 30.0157 26.5044 28.8775 26.5044ZM24.0405 26.5044C22.9023 26.5044 21.9782 25.5803 21.9782 24.4396C21.9782 23.3027 22.9023 22.3786 24.0405 22.3786C25.1799 22.3786 26.104 23.3027 26.104 24.4396C26.104 25.5803 25.1799 26.5044 24.0405 26.5044ZM19.2009 26.5044C18.0627 26.5044 17.1361 25.5803 17.1361 24.4396C17.1361 23.3027 18.0627 22.3786 19.2009 22.3786C20.3417 22.3786 21.2657 23.3027 21.2657 24.4396C21.2657 25.5803 20.3417 26.5044 19.2009 26.5044ZM19.5387 1.1149V17.4982V18.1355V18.1471L19.5346 18.1511C19.5285 18.8878 18.9279 19.4831 18.1887 19.4831H17.5539H16.157C16.055 19.4831 15.9735 19.5646 15.9735 19.6653V33.938C16.4769 33.9839 16.9842 34.0094 17.5004 34.0094C26.6187 34.0094 34.0086 26.6168 34.0086 17.4986C34.0086 9.07236 27.6944 2.11957 19.5384 1.1152" fill="#00985F"/>
</svg>
