<svg width="170" height="25" viewBox="0 0 170 25" fill="none" xmlns="http://www.w3.org/2000/svg">
<path d="M54.52 7.8V19H52.44V14.2H46.648V19H44.568V7.8H46.648V12.424H52.44V7.8H54.52ZM60.6218 10.36C61.8804 10.36 62.8404 10.664 63.5018 11.272C64.1738 11.8693 64.5098 12.776 64.5098 13.992V19H62.6218V17.96C62.3764 18.3333 62.0244 18.6213 61.5658 18.824C61.1178 19.016 60.5738 19.112 59.9338 19.112C59.2938 19.112 58.7338 19.0053 58.2538 18.792C57.7738 18.568 57.4004 18.264 57.1338 17.88C56.8778 17.4853 56.7498 17.0427 56.7498 16.552C56.7498 15.784 57.0324 15.1707 57.5978 14.712C58.1738 14.2427 59.0751 14.008 60.3018 14.008H62.5098V13.88C62.5098 13.2827 62.3284 12.824 61.9658 12.504C61.6138 12.184 61.0858 12.024 60.3818 12.024C59.9018 12.024 59.4271 12.0987 58.9578 12.248C58.4991 12.3973 58.1098 12.6053 57.7898 12.872L57.0058 11.416C57.4538 11.0747 57.9924 10.8133 58.6218 10.632C59.2511 10.4507 59.9178 10.36 60.6218 10.36ZM60.3498 17.656C60.8511 17.656 61.2938 17.544 61.6778 17.32C62.0724 17.0853 62.3498 16.7547 62.5098 16.328V15.336H60.4458C59.2938 15.336 58.7178 15.7147 58.7178 16.472C58.7178 16.8347 58.8618 17.1227 59.1498 17.336C59.4378 17.5493 59.8378 17.656 60.3498 17.656ZM79.5766 10.456V19H66.9846V10.456H68.9846V17.304H72.2966V10.456H74.2966V17.304H77.5766V10.456H79.5766ZM82.2659 10.456H84.2659V16.088L88.9859 10.456H90.8099V19H88.8099V13.368L84.1059 19H82.2659V10.456ZM97.9221 10.456H99.9221V13.928H104.226V10.456H106.226V19H104.226V15.624H99.9221V19H97.9221V10.456ZM112.091 10.36C113.349 10.36 114.309 10.664 114.971 11.272C115.643 11.8693 115.979 12.776 115.979 13.992V19H114.091V17.96C113.845 18.3333 113.493 18.6213 113.035 18.824C112.587 19.016 112.043 19.112 111.403 19.112C110.763 19.112 110.203 19.0053 109.723 18.792C109.243 18.568 108.869 18.264 108.603 17.88C108.347 17.4853 108.219 17.0427 108.219 16.552C108.219 15.784 108.501 15.1707 109.067 14.712C109.643 14.2427 110.544 14.008 111.771 14.008H113.979V13.88C113.979 13.2827 113.797 12.824 113.435 12.504C113.083 12.184 112.555 12.024 111.851 12.024C111.371 12.024 110.896 12.0987 110.427 12.248C109.968 12.3973 109.579 12.6053 109.259 12.872L108.475 11.416C108.923 11.0747 109.461 10.8133 110.091 10.632C110.72 10.4507 111.387 10.36 112.091 10.36ZM111.819 17.656C112.32 17.656 112.763 17.544 113.147 17.32C113.541 17.0853 113.819 16.7547 113.979 16.328V15.336H111.915C110.763 15.336 110.187 15.7147 110.187 16.472C110.187 16.8347 110.331 17.1227 110.619 17.336C110.907 17.5493 111.307 17.656 111.819 17.656ZM125.013 12.152H120.453V19H118.453V10.456H125.013V12.152ZM131.205 10.36C132.037 10.36 132.778 10.5413 133.429 10.904C134.09 11.2667 134.608 11.7787 134.981 12.44C135.354 13.1013 135.541 13.864 135.541 14.728C135.541 15.592 135.354 16.36 134.981 17.032C134.608 17.6933 134.09 18.2053 133.429 18.568C132.778 18.9307 132.037 19.112 131.205 19.112C130.053 19.112 129.141 18.728 128.469 17.96V22.104H126.469V10.456H128.373V11.576C128.704 11.1707 129.109 10.8667 129.589 10.664C130.08 10.4613 130.618 10.36 131.205 10.36ZM130.981 17.4C131.717 17.4 132.32 17.1547 132.789 16.664C133.269 16.1733 133.509 15.528 133.509 14.728C133.509 13.928 133.269 13.2827 132.789 12.792C132.32 12.3013 131.717 12.056 130.981 12.056C130.501 12.056 130.069 12.168 129.685 12.392C129.301 12.6053 128.997 12.9147 128.773 13.32C128.549 13.7253 128.437 14.1947 128.437 14.728C128.437 15.2613 128.549 15.7307 128.773 16.136C128.997 16.5413 129.301 16.856 129.685 17.08C130.069 17.2933 130.501 17.4 130.981 17.4ZM140.606 10.36C141.865 10.36 142.825 10.664 143.486 11.272C144.158 11.8693 144.494 12.776 144.494 13.992V19H142.606V17.96C142.361 18.3333 142.009 18.6213 141.55 18.824C141.102 19.016 140.558 19.112 139.918 19.112C139.278 19.112 138.718 19.0053 138.238 18.792C137.758 18.568 137.385 18.264 137.118 17.88C136.862 17.4853 136.734 17.0427 136.734 16.552C136.734 15.784 137.017 15.1707 137.582 14.712C138.158 14.2427 139.059 14.008 140.286 14.008H142.494V13.88C142.494 13.2827 142.313 12.824 141.95 12.504C141.598 12.184 141.07 12.024 140.366 12.024C139.886 12.024 139.411 12.0987 138.942 12.248C138.483 12.3973 138.094 12.6053 137.774 12.872L136.99 11.416C137.438 11.0747 137.977 10.8133 138.606 10.632C139.235 10.4507 139.902 10.36 140.606 10.36ZM140.334 17.656C140.835 17.656 141.278 17.544 141.662 17.32C142.057 17.0853 142.334 16.7547 142.494 16.328V15.336H140.43C139.278 15.336 138.702 15.7147 138.702 16.472C138.702 16.8347 138.846 17.1227 139.134 17.336C139.422 17.5493 139.822 17.656 140.334 17.656ZM156.089 17.304V20.904H154.217V19H147.625V20.904H145.769V17.304H146.169C146.713 17.2827 147.081 16.936 147.273 16.264C147.476 15.5813 147.609 14.6213 147.673 13.384L147.785 10.456H154.825V17.304H156.089ZM149.497 13.528C149.454 14.5093 149.374 15.3093 149.257 15.928C149.14 16.5467 148.926 17.0053 148.617 17.304H152.825V12.152H149.545L149.497 13.528ZM162.035 13.272C163.123 13.272 163.955 13.5173 164.531 14.008C165.107 14.4987 165.395 15.192 165.395 16.088C165.395 17.0267 165.075 17.752 164.435 18.264C163.806 18.776 162.91 19.0267 161.747 19.016L157.875 19V10.456H159.875V13.256L162.035 13.272ZM166.499 10.456H168.499V19H166.499V10.456ZM161.571 17.544C162.158 17.5547 162.606 17.432 162.915 17.176C163.225 16.92 163.379 16.5467 163.379 16.056C163.379 15.576 163.23 15.224 162.931 15C162.633 14.776 162.179 14.6587 161.571 14.648L159.875 14.632V17.528L161.571 17.544Z" fill="#404040"/>
<g clip-path="url(#clip0)">
<path d="M15.5094 3.6765L17.0869 3.05176e-05H7.91357L9.49107 3.6765H15.5094Z" fill="#EC4F32"/>
<path d="M12.5 22.4121C14.7383 22.4121 16.5527 20.5867 16.5527 18.335C16.5527 16.0832 14.7383 14.2578 12.5 14.2578C10.2617 14.2578 8.44727 16.0832 8.44727 18.335C8.44727 20.5867 10.2617 22.4121 12.5 22.4121Z" fill="#EC4F32"/>
<path d="M10.807 10.473L6.31326 3.05176e-05L2.80713 3.50616L6.69993 12.7515C7.79498 11.6239 9.21478 10.8135 10.807 10.473Z" fill="#EC4F32"/>
<path d="M18.3005 12.7516L22.1933 3.50621L18.6871 3.05176e-05L14.1934 10.473C15.7856 10.8135 17.2055 11.6239 18.3005 12.7516Z" fill="#EC4F32"/>
<path d="M12.5 11.7647C8.851 11.7647 5.88232 14.7334 5.88232 18.3824C5.88232 22.0314 8.851 25 12.5 25C16.1489 25 19.1176 22.0314 19.1176 18.3824C19.1176 14.7334 16.149 11.7647 12.5 11.7647ZM12.5 22.0589C10.4728 22.0589 8.8235 20.4096 8.8235 18.3824C8.8235 16.3552 10.4728 14.7059 12.5 14.7059C14.5272 14.7059 16.1764 16.3552 16.1764 18.3824C16.1764 20.4096 14.5272 22.0589 12.5 22.0589Z" fill="#EC4F32"/>
</g>
<defs>
<clipPath id="clip0">
<rect width="25" height="25" fill="white"/>
</clipPath>
</defs>
</svg>
