<svg width="80" height="82" viewBox="0 0 80 82" fill="none" xmlns="http://www.w3.org/2000/svg">
<path d="M71.6557 15.7518C73.5558 18.2415 75.1645 20.9464 76.4489 23.8121L40.0121 51.0332L24.7842 41.359V29.7204L40.0121 39.3946L71.6557 15.7518Z" fill="#21A038"/>
<path d="M9.24112 40.5374C9.24112 40.0151 9.25368 39.4963 9.27882 38.9805L0.0502603 38.5222C0.0188493 39.1907 1.11523e-05 39.8656 1.11523e-05 40.5468C-0.00391534 45.869 1.02903 51.1393 3.03961 56.0558C5.05017 60.9724 7.99879 65.4382 11.7163 69.1971L18.2623 62.5662C15.4007 59.6778 13.1306 56.2446 11.5824 52.4642C10.0343 48.6837 9.23859 44.6304 9.24112 40.5374Z" fill="url(#paint0_linear)"/>
<path d="M40.0035 9.3634C40.5185 9.3634 41.0304 9.38251 41.5393 9.40797L42.001 0.0520511C41.3395 0.0202174 40.6735 0.00430253 40.0035 0.00430253C34.7495 -0.00219077 29.5463 1.04314 24.6922 3.08027C19.8381 5.11741 15.4289 8.10623 11.7178 11.8751L18.2638 18.5092C21.114 15.6082 24.5019 13.3067 28.2328 11.7371C31.9637 10.1675 35.9638 9.36083 40.0035 9.3634Z" fill="url(#paint1_linear)"/>
<path d="M40.0037 71.7116C39.4886 71.7116 38.9765 71.7116 38.4647 71.6702L38.0029 81.023C38.6667 81.0569 39.3337 81.074 40.0037 81.074C45.2555 81.0795 50.4562 80.0335 55.3077 77.9958C60.1592 75.9581 64.5655 72.9688 68.2738 69.2L61.7403 62.5691C58.8896 65.4686 55.502 67.7688 51.7719 69.3378C48.0417 70.9068 44.0424 71.7136 40.0037 71.7116Z" fill="url(#paint2_linear)"/>
<path d="M57.3389 14.8027L65.1162 8.99308C58.0077 3.15942 49.1343 -0.0161936 39.9873 6.20994e-05V9.36235C46.1812 9.35456 52.2314 11.2516 57.3389 14.8027Z" fill="url(#paint3_linear)"/>
<path d="M79.9996 40.5369C80.0046 38.1014 79.7944 35.6701 79.3713 33.2725L70.7617 39.7028C70.7617 39.98 70.7617 40.2568 70.7617 40.5369C70.7639 44.8927 69.8629 49.2003 68.1174 53.1806C66.3717 57.1608 63.8202 60.7249 60.6284 63.6418L66.8385 70.5976C70.988 66.8011 74.3039 62.1632 76.5712 56.9848C78.8386 51.8061 80.0066 46.2024 79.9996 40.5369Z" fill="#21A038"/>
<path d="M39.9988 71.712C35.7006 71.7134 31.4499 70.8001 27.522 69.031C23.5943 67.262 20.0768 64.6765 17.1975 61.4424L10.3374 67.7327C14.083 71.9388 18.6591 75.2998 23.769 77.5983C28.8788 79.8965 34.4082 81.0808 39.9988 81.0741V71.712Z" fill="url(#paint4_linear)"/>
<path d="M19.3743 17.4321L13.1675 10.4764C9.01677 14.2722 5.69963 18.9098 3.43121 24.0884C1.16282 29.267 -0.00618443 34.871 2.46047e-05 40.5369H9.24114C9.23923 36.1814 10.1403 31.8738 11.8859 27.8935C13.6315 23.9134 16.1827 20.3493 19.3743 17.4321Z" fill="url(#paint5_linear)"/>
<defs>
<linearGradient id="paint0_linear" x1="13.5853" y1="68.0289" x2="3.24615" y2="38.5376" gradientUnits="userSpaceOnUse">
<stop offset="0.14" stop-color="#F1E813"/>
<stop offset="0.3" stop-color="#E6E418"/>
<stop offset="0.58" stop-color="#C9DA26"/>
<stop offset="0.89" stop-color="#A2CC39"/>
</linearGradient>
<linearGradient id="paint1_linear" x1="14.3563" y1="13.5305" x2="40.4486" y2="3.71905" gradientUnits="userSpaceOnUse">
<stop offset="0.06" stop-color="#0FA7DF"/>
<stop offset="0.54" stop-color="#0098F8"/>
<stop offset="0.92" stop-color="#0290EA"/>
</linearGradient>
<linearGradient id="paint2_linear" x1="37.3937" y1="75.4234" x2="66.8382" y2="68.8599" gradientUnits="userSpaceOnUse">
<stop offset="0.12" stop-color="#A2CC39"/>
<stop offset="0.28" stop-color="#86C239"/>
<stop offset="0.87" stop-color="#219F38"/>
</linearGradient>
<linearGradient id="paint3_linear" x1="38.0651" y1="3.13568" x2="63.2642" y2="10.8088" gradientUnits="userSpaceOnUse">
<stop offset="0.06" stop-color="#0290EA"/>
<stop offset="0.79" stop-color="#0C89CA"/>
</linearGradient>
<linearGradient id="paint4_linear" x1="12.6555" y1="66.593" x2="40.1096" y2="76.7174" gradientUnits="userSpaceOnUse">
<stop offset="0.13" stop-color="#F1E813"/>
<stop offset="0.3" stop-color="#EAE616"/>
<stop offset="0.53" stop-color="#D8DF1F"/>
<stop offset="0.8" stop-color="#BAD52D"/>
<stop offset="0.98" stop-color="#A2CC39"/>
</linearGradient>
<linearGradient id="paint5_linear" x1="3.44266" y1="41.6702" x2="14.6855" y2="12.8119" gradientUnits="userSpaceOnUse">
<stop offset="0.07" stop-color="#A2CC39"/>
<stop offset="0.26" stop-color="#81C45E"/>
<stop offset="0.92" stop-color="#0FA7DF"/>
</linearGradient>
</defs>
</svg>
