<svg width="128" height="25" viewBox="0 0 128 25" fill="none" xmlns="http://www.w3.org/2000/svg">
<path d="M58.856 20L58.84 12.576L55.16 18.72H54.232L50.552 12.672V20H48.584V8.8H50.296L54.728 16.208L59.112 8.8H60.808L60.84 20H58.856ZM67.9103 14.272C68.9983 14.272 69.8303 14.5173 70.4062 15.008C70.9823 15.4987 71.2703 16.192 71.2703 17.088C71.2703 18.0267 70.9503 18.752 70.3103 19.264C69.6809 19.776 68.7849 20.0267 67.6223 20.016L63.7503 20V11.456H65.7503V14.256L67.9103 14.272ZM72.3743 11.456H74.3743V20H72.3743V11.456ZM67.4463 18.544C68.0329 18.5547 68.4809 18.432 68.7903 18.176C69.0996 17.92 69.2543 17.5467 69.2543 17.056C69.2543 16.576 69.1049 16.224 68.8063 16C68.5076 15.776 68.0543 15.6587 67.4463 15.648L65.7503 15.632V18.528L67.4463 18.544ZM87.6766 15.552C88.7326 15.872 89.2606 16.5547 89.2606 17.6C89.2606 18.368 88.9726 18.96 88.3966 19.376C87.8206 19.792 86.9673 20 85.8366 20H81.4846V11.456H85.6606C86.706 11.456 87.522 11.648 88.1086 12.032C88.6953 12.416 88.9886 12.96 88.9886 13.664C88.9886 14.1013 88.8713 14.48 88.6366 14.8C88.4126 15.12 88.0926 15.3707 87.6766 15.552ZM83.3886 15.024H85.4846C86.5193 15.024 87.0366 14.6667 87.0366 13.952C87.0366 13.2587 86.5193 12.912 85.4846 12.912H83.3886V15.024ZM85.6766 18.544C86.7753 18.544 87.3246 18.1867 87.3246 17.472C87.3246 17.0987 87.1966 16.8213 86.9406 16.64C86.6846 16.448 86.2846 16.352 85.7406 16.352H83.3886V18.544H85.6766ZM99.7008 20.112C98.8154 20.112 98.0208 19.9253 97.3168 19.552C96.6128 19.1787 96.0634 18.6613 95.6688 18C95.2741 17.328 95.0768 16.5707 95.0768 15.728C95.0768 14.8853 95.2741 14.1333 95.6688 13.472C96.0634 12.8107 96.6074 12.2933 97.3008 11.92C98.0048 11.5467 98.8048 11.36 99.7008 11.36C100.543 11.36 101.279 11.5307 101.909 11.872C102.549 12.2133 103.029 12.704 103.349 13.344L101.813 14.24C101.567 13.8453 101.258 13.552 100.885 13.36C100.522 13.1573 100.122 13.056 99.6848 13.056C98.9381 13.056 98.3194 13.3013 97.8288 13.792C97.3381 14.272 97.0928 14.9173 97.0928 15.728C97.0928 16.5387 97.3328 17.1893 97.8128 17.68C98.3034 18.16 98.9274 18.4 99.6848 18.4C100.122 18.4 100.522 18.304 100.885 18.112C101.258 17.9093 101.567 17.6107 101.813 17.216L103.349 18.112C103.018 18.752 102.533 19.248 101.893 19.6C101.263 19.9413 100.533 20.112 99.7008 20.112ZM113.51 20V14.336L110.63 19.104H109.766L106.934 14.32V20H105.11V11.456H107.206L110.246 16.8L113.43 11.456H115.302L115.318 20H113.51ZM118 11.456H120V17.088L124.72 11.456H126.544V20H124.544V14.368L119.84 20H118V11.456Z" fill="#404040"/>
<path d="M24.2676 6.27603H0.732422C0.32793 6.27603 0 6.60396 0 7.00845V24.2676C0 24.6721 0.32793 25 0.732422 25H24.2676C24.6721 25 25 24.6721 25 24.2676V7.00845C25 6.60396 24.6721 6.27603 24.2676 6.27603ZM16.6327 16.2475L10.7489 20.17C10.6263 20.2517 10.4847 20.293 10.3426 20.293C10.2241 20.293 10.1053 20.2643 9.99702 20.2064C9.75889 20.0789 9.6102 19.8308 9.6102 19.5606V11.7155C9.6102 11.4454 9.75889 11.1972 9.99702 11.0698C10.2353 10.9423 10.5242 10.9563 10.7489 11.1061L16.6327 15.0287C16.8364 15.1645 16.9588 15.3932 16.9588 15.638C16.9588 15.8829 16.8364 16.1117 16.6327 16.2475Z" fill="#EC4F32"/>
<path d="M21.9141 3.13809H3.08594C2.68145 3.13809 2.35352 3.46602 2.35352 3.87051C2.35352 4.27501 2.68145 4.60293 3.08594 4.60293H21.9141C22.3185 4.60293 22.6465 4.27501 22.6465 3.87051C22.6465 3.46602 22.3185 3.13809 21.9141 3.13809Z" fill="#EC4F32"/>
<path d="M19.5605 0H5.43945C5.03496 0 4.70703 0.32793 4.70703 0.732422C4.70703 1.13691 5.03496 1.46484 5.43945 1.46484H19.5605C19.965 1.46484 20.293 1.13691 20.293 0.732422C20.293 0.32793 19.965 0 19.5605 0Z" fill="#EC4F32"/>
</svg>
