<svg width="15" height="15" viewBox="0 0 15 15" fill="none" xmlns="http://www.w3.org/2000/svg">
<g clip-path="url(#clip0)">
<path d="M14.572 10.6066L11.2907 9.20034C11.1505 9.1406 10.9948 9.12801 10.8468 9.16447C10.6989 9.20093 10.5668 9.28446 10.4704 9.40248L9.01728 11.1779C6.73674 10.1026 4.90143 8.26731 3.82617 5.98677L5.60156 4.53365C5.71983 4.43746 5.80353 4.30536 5.84001 4.15734C5.87648 4.00933 5.86374 3.85346 5.80371 3.71334L4.39746 0.432094C4.33158 0.281042 4.21505 0.157714 4.06797 0.0833739C3.9209 0.00903422 3.75249 -0.0116568 3.5918 0.0248686L0.544922 0.727992C0.389991 0.763769 0.251761 0.851003 0.152793 0.975457C0.0538257 1.09991 -3.56897e-05 1.25424 1.77428e-08 1.41324C1.77428e-08 8.92788 6.09082 15.007 13.5937 15.007C13.7528 15.0071 13.9072 14.9532 14.0317 14.8543C14.1562 14.7553 14.2435 14.617 14.2793 14.462L14.9824 11.4152C15.0187 11.2537 14.9976 11.0846 14.9227 10.937C14.8478 10.7895 14.7237 10.6726 14.572 10.6066Z" fill="white"/>
</g>
<defs>
<clipPath id="clip0">
<rect width="15" height="15" fill="white"/>
</clipPath>
</defs>
</svg>
