<svg width="15" height="15" viewBox="0 0 15 15" fill="none" xmlns="http://www.w3.org/2000/svg">
<path d="M13.5938 1.5H1.40625C0.62959 1.5 0 2.12959 0 2.90625V11.3438C0 12.1204 0.62959 12.75 1.40625 12.75H13.5938C14.3704 12.75 15 12.1204 15 11.3438V2.90625C15 2.12959 14.3704 1.5 13.5938 1.5ZM13.5938 2.90625V4.10171C12.9369 4.63664 11.8896 5.46844 9.65077 7.22153C9.15738 7.60963 8.18004 8.542 7.5 8.53113C6.82008 8.54212 5.84241 7.60948 5.34923 7.22153C3.11074 5.4687 2.06323 4.63673 1.40625 4.10171V2.90625H13.5938ZM1.40625 11.3438V5.90619C2.07756 6.44089 3.02956 7.19121 4.48061 8.32746C5.12095 8.83151 6.24234 9.94424 7.5 9.93747C8.75147 9.94424 9.85866 8.84766 10.5191 8.3277C11.9701 7.19147 12.9224 6.44095 13.5938 5.90622V11.3438H1.40625Z" fill="white"/>
</svg>
