<svg width="15" height="16" viewBox="0 0 15 16" fill="none" xmlns="http://www.w3.org/2000/svg">
<g clip-path="url(#clip0)">
<path d="M6.81593 7.05757C6.4379 7.4356 6.4379 8.0483 6.81593 8.42602C7.19365 8.80405 7.80665 8.80405 8.18437 8.42602C8.5624 8.048 8.5624 7.4353 8.18437 7.05757C7.80635 6.67985 7.19365 6.67985 6.81593 7.05757ZM7.5 0.241943C3.35776 0.241943 0 3.59971 0 7.74195C0 11.8842 3.35776 15.242 7.5 15.242C11.6422 15.242 15 11.8842 15 7.74195C15 3.59971 11.6422 0.241943 7.5 0.241943ZM11.3147 4.71927L9.31966 9.08469C9.22316 9.29581 9.05386 9.46511 8.84274 9.56161L4.47762 11.5567C3.97409 11.7868 3.45514 11.2679 3.68528 10.7643L5.68064 6.3989C5.77714 6.18779 5.94645 6.01849 6.15756 5.92199L10.5227 3.92693C11.0262 3.69709 11.5449 4.21574 11.3147 4.71927Z" fill="white"/>
</g>
<defs>
<clipPath id="clip0">
<rect width="15" height="15.4839" fill="white"/>
</clipPath>
</defs>
</svg>
